<svg xmlns="http://www.w3.org/2000/svg" viewBox="0 0 600 700" width="600" height="700">
  <defs>
    <linearGradient id="g" x1="0%" y1="0%" x2="100%" y2="0%">
      <stop offset="0%" stop-color="#E01070"/><stop offset="100%" stop-color="#00A8D4"/>
    </linearGradient>
    <linearGradient id="apex" x1="0%" y1="0%" x2="100%" y2="100%">
      <stop offset="0%" stop-color="#E01070"/><stop offset="50%" stop-color="#9020C0"/><stop offset="100%" stop-color="#00A8D4"/>
    </linearGradient>
  </defs>
  <rect width="600" height="700" fill="#FFFFFF"/>
  <polygon points="300,35 540,165 540,475 300,665 60,475 60,165" fill="none" stroke="url(#g)" stroke-width="4" stroke-linejoin="miter"/>
  <polygon points="300,60 510,170 510,450 300,630 90,450 90,170" fill="none" stroke="url(#g)" stroke-width="1.5" opacity="0.55"/>
  <circle cx="300" cy="210" r="50" fill="none" stroke="url(#g)" stroke-width="1.5" opacity="0.6"/>
  <polyline points="115,285 165,225 205,265 245,235" fill="none" stroke="#E01070" stroke-width="2"/>
  <polyline points="355,235 395,265 435,225 485,285" fill="none" stroke="#00A8D4" stroke-width="2"/>
  <path d="M165 295 Q195 320 225 295 Q195 270 165 295" fill="none" stroke="#E01070" stroke-width="1.5" opacity="0.75"/>
  <path d="M375 295 Q405 320 435 295 Q405 270 375 295" fill="none" stroke="#00A8D4" stroke-width="1.5" opacity="0.75"/>
  <g stroke="url(#g)" stroke-width="2" fill="none">
    <rect x="262" y="230" width="76" height="130" rx="16"/><line x1="280" y1="230" x2="280" y2="360"/><line x1="320" y1="230" x2="320" y2="360"/>
    <rect x="272" y="255" width="24" height="38" rx="5"/><rect x="304" y="255" width="24" height="38" rx="5"/>
    <line x1="262" y1="300" x2="235" y2="300"/><line x1="338" y1="300" x2="365" y2="300"/>
    <ellipse cx="242" cy="300" rx="9" ry="6"/><ellipse cx="358" cy="300" rx="9" ry="6"/>
  </g>
  <text x="300" y="455" text-anchor="middle" font-family="Poppins,Impact,sans-serif" font-size="72" font-weight="900" font-style="italic" fill="url(#apex)">APEX</text>
  <text x="300" y="500" text-anchor="middle" font-family="Inter,Arial,sans-serif" font-size="26" font-weight="600" letter-spacing="10" fill="url(#g)">DETAILING</text>
  <line x1="220" y1="540" x2="275" y2="540" stroke="url(#g)" stroke-width="1.2" opacity="0.45"/>
  <g transform="translate(300,540)" fill="#00A8D4"><polygon points="0,-8 2.5,-2.5 8,0 2.5,2.5 0,8 -2.5,2.5 -8,0 -2.5,-2.5"/></g>
  <line x1="325" y1="540" x2="380" y2="540" stroke="url(#g)" stroke-width="1.2" opacity="0.45"/>
</svg>
